GRFwalking.mot
version=1
nRows=7
nColumns=37
inDegrees=yes
endheader
time	ground_force_calcn_l_vx	ground_force_calcn_l_vy	ground_force_calcn_l_vz	ground_force_calcn_l_px	ground_force_calcn_l_py	ground_force_calcn_l_pz	ground_torque_calcn_l_vx	ground_torque_calcn_l_vy	ground_torque_calcn_l_vz	ground_force_calcn_r_vx	ground_force_calcn_r_vy	ground_force_calcn_r_vz	ground_force_calcn_r_px	ground_force_calcn_r_py	ground_force_calcn_r_pz	ground_torque_calcn_r_vx	ground_torque_calcn_r_vy	ground_torque_calcn_r_vz	ground_force_hand_l_vx	ground_force_hand_l_vy	ground_force_hand_l_vz	ground_force_hand_l_px	ground_force_hand_l_py	ground_force_hand_l_pz	ground_torque_hand_l_vx	ground_torque_hand_l_vy	ground_torque_hand_l_vz	ground_force_hand_r_vx	ground_force_hand_r_vy	ground_force_hand_r_vz	ground_force_hand_r_px	ground_force_hand_r_py	ground_force_hand_r_pz	ground_torque_hand_r_vx	ground_torque_hand_r_vy	ground_torque_hand_r_vz
3.799973     -54.36897      197.6027      13.41418      1.564423 -9.540979e-17    -0.3783025             0     -1.085419             0      101.4294       667.063     -61.00172      1.139764 -6.938894e-17    -0.1166337             0    -0.8659544             0             0             0             0      1.313079     0.7529428    -0.5284365             0             0             0             0             0             0      1.591808     0.8389413    0.01276957             0             0             0
3.816639     -55.96892      232.3674      14.83656      1.566713 -9.540979e-17     -0.379328             0      -1.06065             0      95.46978      638.7612     -56.60527       1.15903 -7.112366e-17    -0.1143017             0    -0.7815983             0             0             0             0      1.327223     0.7532307    -0.5320391             0             0             0             0             0             0      1.599784     0.8388345     0.0098531             0             0             0
3.833306     -57.32468      269.8401      16.27053      1.568401 -9.540979e-17    -0.3788731             0       -1.0131             0      88.06376       606.501     -51.50048      1.182916 -7.285839e-17    -0.1130375             0    -0.7300147             0             0             0             0       1.34127     0.7545209    -0.5354858             0             0             0             0             0             0      1.606202     0.8386849    0.00687144             0             0             0
3.849973     -61.05835      310.4625      18.69998      1.573454 -9.714451e-17    -0.3770453             0     -0.903848             0      81.43795      568.8027     -46.32939      1.195106 -7.285839e-17    -0.1144888             0    -0.7036482             0             0             0             0       1.35568     0.7559472     -0.538769             0             0             0             0             0             0      1.611685     0.8376203    0.00375568             0             0             0
3.866639     -69.26342      352.4391       22.8991      1.582399 -9.714451e-17    -0.3751206             0    -0.7356445             0      77.44689      526.6384     -41.69799      1.203437 -7.372575e-17    -0.1160081             0    -0.6994725             0             0             0             0      1.371033     0.7569071    -0.5418774             0             0             0             0             0             0      1.616806     0.8350793    0.00059466             0             0             0
3.883306     -82.36792       392.438      28.94266      1.599164 -9.714451e-17     -0.374204             0    -0.5862377             0      76.72672      483.2467     -37.80643      1.210303 -7.372575e-17     -0.117155             0    -0.7193566             0             0             0             0      1.387613     0.7574965    -0.5447863             0             0             0             0             0             0      1.621737     0.8313082   -0.00244014             0             0             0
3.899973     -98.79446      427.9081      36.06431      1.653822  -1.00614e-16     -0.371498             0    -0.6002641             0      78.35228      441.7177     -34.24636      1.215193 -7.459311e-17    -0.1172814             0    -0.7657204             0             0             0             0      1.405171      0.758247    -0.5474754             0             0             0             0             0             0      1.626138     0.8271337   -0.00524092             0             0             0
